<svg width="154" height="154" viewBox="0 0 154 154" fill="none" xmlns="http://www.w3.org/2000/svg">
<g filter="url(#filter0_dii_450_2179)">
<circle cx="73" cy="64.5" r="50" fill="url(#paint0_linear_450_2179)"/>
</g>
<path d="M69.6733 43.4031C71.4584 41.4431 74.5423 41.4431 76.3274 43.4031L78.6229 45.9237C79.5249 46.9143 80.8216 47.4513 82.1601 47.3888L85.5655 47.2296C88.2135 47.1059 90.3944 49.2866 90.2707 51.9348L90.1114 55.3402C90.0488 56.6786 90.5859 57.9752 91.5766 58.8774L94.097 61.1728C96.0572 62.9579 96.0572 66.0418 94.097 67.8269L91.5766 70.1224C90.5859 71.0244 90.0488 72.3211 90.1114 73.6596L90.2707 77.065C90.3944 79.713 88.2135 81.8939 85.5655 81.7702L82.1601 81.6109C80.8216 81.5483 79.5249 82.0854 78.6229 83.0761L76.3274 85.5965C74.5423 87.5567 71.4584 87.5567 69.6733 85.5965L67.3778 83.0761C66.4757 82.0854 65.1791 81.5483 63.8407 81.6109L60.4353 81.7702C57.7871 81.8939 55.6064 79.713 55.7301 77.065L55.8893 73.6596C55.9518 72.3211 55.4148 71.0244 54.4241 70.1224L51.9036 67.8269C49.9436 66.0418 49.9436 62.9579 51.9036 61.1728L54.4241 58.8774C55.4148 57.9752 55.9518 56.6786 55.8893 55.3402L55.7301 51.9348C55.6064 49.2866 57.7871 47.1059 60.4353 47.2296L63.8407 47.3888C65.1791 47.4513 66.4757 46.9143 67.3778 45.9237L69.6733 43.4031Z" stroke="#1D1D1D" stroke-width="3.375"/>
<path d="M66.25 64.5L70.75 69L79.75 60" stroke="#1D1D1D" stroke-width="3.375" stroke-linecap="round" stroke-linejoin="round"/>
<defs>
<filter id="filter0_dii_450_2179" x="0.45356" y="0.514088" width="153.333" height="153.333" filterUnits="userSpaceOnUse" color-interpolation-filters="sRGB">
<feFlood flood-opacity="0" result="BackgroundImageFix"/>
<feColorMatrix in="SourceAlpha" type="matrix" values="0 0 0 0 0 0 0 0 0 0 0 0 0 0 0 0 0 0 127 0" result="hardAlpha"/>
<feOffset dx="4.12023" dy="12.6808"/>
<feGaussianBlur stdDeviation="13.3333"/>
<feColorMatrix type="matrix" values="0 0 0 0 0.0253229 0 0 0 0 0.0975246 0 0 0 0 0.184167 0 0 0 0.3415 0"/>
<feBlend mode="normal" in2="BackgroundImageFix" result="effect1_dropShadow_450_2179"/>
<feBlend mode="normal" in="SourceGraphic" in2="effect1_dropShadow_450_2179" result="shape"/>
<feColorMatrix in="SourceAlpha" type="matrix" values="0 0 0 0 0 0 0 0 0 0 0 0 0 0 0 0 0 0 127 0" result="hardAlpha"/>
<feOffset dx="1.54737" dy="4.76233"/>
<feGaussianBlur stdDeviation="2.5037"/>
<feComposite in2="hardAlpha" operator="arithmetic" k2="-1" k3="1"/>
<feColorMatrix type="matrix" values="0 0 0 0 0.154217 0 0 0 0 0.593925 0 0 0 0 1 0 0 0 1 0"/>
<feBlend mode="normal" in2="shape" result="effect2_innerShadow_450_2179"/>
<feColorMatrix in="SourceAlpha" type="matrix" values="0 0 0 0 0 0 0 0 0 0 0 0 0 0 0 0 0 0 127 0" result="hardAlpha"/>
<feOffset dx="-1.54737" dy="-4.76233"/>
<feGaussianBlur stdDeviation="2.5037"/>
<feComposite in2="hardAlpha" operator="arithmetic" k2="-1" k3="1"/>
<feColorMatrix type="matrix" values="0 0 0 0 0.0921121 0 0 0 0 0.354746 0 0 0 0 0.669906 0 0 0 1 0"/>
<feBlend mode="normal" in2="effect2_innerShadow_450_2179" result="effect3_innerShadow_450_2179"/>
</filter>
<linearGradient id="paint0_linear_450_2179" x1="65.898" y1="0.561587" x2="96.7997" y2="95.6672" gradientUnits="userSpaceOnUse">
<stop stop-color="#1961B8"/>
<stop offset="1" stop-color="#2691FF"/>
</linearGradient>
</defs>
</svg>
