<svg width="154" height="154" viewBox="0 0 154 154" fill="none" xmlns="http://www.w3.org/2000/svg">
<g filter="url(#filter0_dii_450_2167)">
<circle cx="73" cy="64.5" r="50" fill="url(#paint0_linear_450_2167)"/>
</g>
<path d="M65.125 47H59.5C57.0147 47 55 49.0147 55 51.5V83C55 85.4853 57.0147 87.5 59.5 87.5H73" stroke="#1D1D1D" stroke-width="3.375" stroke-linecap="round"/>
<path d="M80.875 47H86.5C88.9853 47 91 49.0147 91 51.5V71.75" stroke="#1D1D1D" stroke-width="3.375" stroke-linecap="round"/>
<path d="M64 52.4V48.125C64 47.5037 64.5037 47 65.125 47C65.7463 47 66.2595 46.4961 66.3659 45.884C66.6993 43.9663 67.9915 40.25 73 40.25C78.0085 40.25 79.3007 43.9663 79.6341 45.884C79.7405 46.4961 80.2538 47 80.875 47C81.4962 47 82 47.5037 82 48.125V52.4C82 53.1456 81.3956 53.75 80.65 53.75H65.35C64.6044 53.75 64 53.1456 64 52.4Z" stroke="#1D1D1D" stroke-width="3.375" stroke-linecap="round"/>
<path d="M80.875 84.125L85.375 88.625L96.625 77.375" stroke="#1D1D1D" stroke-width="3.375" stroke-linecap="round" stroke-linejoin="round"/>
<defs>
<filter id="filter0_dii_450_2167" x="0.45356" y="0.514088" width="153.333" height="153.333" filterUnits="userSpaceOnUse" color-interpolation-filters="sRGB">
<feFlood flood-opacity="0" result="BackgroundImageFix"/>
<feColorMatrix in="SourceAlpha" type="matrix" values="0 0 0 0 0 0 0 0 0 0 0 0 0 0 0 0 0 0 127 0" result="hardAlpha"/>
<feOffset dx="4.12023" dy="12.6808"/>
<feGaussianBlur stdDeviation="13.3333"/>
<feColorMatrix type="matrix" values="0 0 0 0 0.0253229 0 0 0 0 0.0975246 0 0 0 0 0.184167 0 0 0 0.3415 0"/>
<feBlend mode="normal" in2="BackgroundImageFix" result="effect1_dropShadow_450_2167"/>
<feBlend mode="normal" in="SourceGraphic" in2="effect1_dropShadow_450_2167" result="shape"/>
<feColorMatrix in="SourceAlpha" type="matrix" values="0 0 0 0 0 0 0 0 0 0 0 0 0 0 0 0 0 0 127 0" result="hardAlpha"/>
<feOffset dx="1.54737" dy="4.76233"/>
<feGaussianBlur stdDeviation="2.5037"/>
<feComposite in2="hardAlpha" operator="arithmetic" k2="-1" k3="1"/>
<feColorMatrix type="matrix" values="0 0 0 0 0.154217 0 0 0 0 0.593925 0 0 0 0 1 0 0 0 1 0"/>
<feBlend mode="normal" in2="shape" result="effect2_innerShadow_450_2167"/>
<feColorMatrix in="SourceAlpha" type="matrix" values="0 0 0 0 0 0 0 0 0 0 0 0 0 0 0 0 0 0 127 0" result="hardAlpha"/>
<feOffset dx="-1.54737" dy="-4.76233"/>
<feGaussianBlur stdDeviation="2.5037"/>
<feComposite in2="hardAlpha" operator="arithmetic" k2="-1" k3="1"/>
<feColorMatrix type="matrix" values="0 0 0 0 0.0921121 0 0 0 0 0.354746 0 0 0 0 0.669906 0 0 0 1 0"/>
<feBlend mode="normal" in2="effect2_innerShadow_450_2167" result="effect3_innerShadow_450_2167"/>
</filter>
<linearGradient id="paint0_linear_450_2167" x1="65.898" y1="0.561587" x2="96.7997" y2="95.6672" gradientUnits="userSpaceOnUse">
<stop stop-color="#1961B8"/>
<stop offset="1" stop-color="#2691FF"/>
</linearGradient>
</defs>
</svg>
