<svg width="390" height="509" viewBox="0 0 390 509" fill="none" xmlns="http://www.w3.org/2000/svg">
<path d="M0.5 28C0.5 12.8122 12.8122 0.5 28 0.5H362C377.188 0.5 389.5 12.8122 389.5 28V481C389.5 496.188 377.188 508.5 362 508.5H28C12.8122 508.5 0.5 496.188 0.5 481V28Z" stroke="black" stroke-opacity="0.08"/>
<path fill-rule="evenodd" clip-rule="evenodd" d="M124.515 469.62L113.841 487.634C113.505 488.201 112.643 488.086 112.471 487.451L109.724 477.331L109.701 477.299C109.681 477.264 109.663 477.228 109.649 477.192L102.137 469.769C101.665 469.303 102 468.506 102.667 468.506H123.869C124.448 468.506 124.808 469.127 124.515 469.62ZM121.818 471.241L111.257 477.264L113.454 485.357L121.818 471.241ZM104.476 469.986L121.024 469.985L110.533 475.968L104.476 469.986Z" fill="#262626"/>
<path fill-rule="evenodd" clip-rule="evenodd" d="M85.9331 475.946C85.9331 470.374 81.0134 465.857 74.9446 465.857C68.8758 465.857 63.9561 470.374 63.9561 475.946C63.9561 481.519 68.8758 486.036 74.9446 486.036C76.2692 486.036 78.0888 485.593 80.4034 484.705L84.1462 486.046L84.2572 486.079C84.741 486.195 85.2537 485.963 85.4399 485.525C85.5144 485.349 85.5283 485.157 85.4799 484.975L84.4363 481.034L84.6072 480.658C85.4911 478.681 85.9331 477.111 85.9331 475.946ZM83.2073 480.167L82.8629 480.916L83.7973 484.445L80.3843 483.222L79.4522 483.577C77.4865 484.305 75.9681 484.661 74.9446 484.661C69.7034 484.661 65.4545 480.76 65.4545 475.947C65.4545 471.134 69.7034 467.233 74.9446 467.233C80.1858 467.233 84.4347 471.134 84.4347 475.947C84.4347 476.906 84.0321 478.328 83.2073 480.167Z" fill="#262626"/>
<path fill-rule="evenodd" clip-rule="evenodd" d="M33.8601 468.47L33.2057 467.716C30.5725 465.122 26.373 465.299 23.7397 467.893C21.1065 470.487 21.6132 475.503 24.2465 478.097C25.3153 479.15 26.9158 480.608 29.048 482.471L30.8419 484.026L32.8567 485.749C33.4114 486.22 34.2311 486.227 34.7943 485.766L36.4265 484.417C39.2848 482.038 41.4059 480.163 42.7897 478.794L43.1488 478.433L43.4714 478.097C45.9238 475.492 46.5541 470.427 43.982 467.893L43.7957 467.716C41.151 465.3 37.1631 465.182 34.5911 467.716L33.8601 468.47ZM24.7992 468.937C26.8815 466.885 30.1028 466.789 32.1074 468.722L33.7986 470.67L35.6742 468.736C37.5981 466.841 40.6642 466.869 42.7767 468.799L42.9425 468.956C44.76 470.747 44.4508 474.886 42.3726 477.093L42.0604 477.418L41.714 477.766C40.5669 478.901 38.8668 480.42 36.6251 482.313L35.4592 483.29L33.8356 484.631L31.824 482.911L30.3843 481.665C28.3556 479.898 26.7906 478.485 25.6949 477.432L25.306 477.053C23.1367 474.916 22.8654 470.842 24.7992 468.937Z" fill="#262626"/>
<path fill-rule="evenodd" clip-rule="evenodd" d="M347.52 464.444V483.672C347.52 483.905 347.623 484.129 347.808 484.295C348.195 484.644 348.827 484.648 349.22 484.304L357.76 476.819L366.3 484.304C366.487 484.468 366.739 484.56 367.001 484.56C367.553 484.56 368 484.162 368 483.672V464.444C368 464.199 367.776 464 367.501 464H348.019C347.744 464 347.52 464.199 347.52 464.444ZM349.018 482.61V465.332H366.502V482.61L358.461 475.563C358.072 475.222 357.448 475.222 357.059 475.563L349.018 482.61Z" fill="#262626"/>
<path fill-rule="evenodd" clip-rule="evenodd" d="M186.328 466.059C187.983 466.059 189.325 467.491 189.325 469.258C189.325 471.025 187.983 472.458 186.328 472.458C184.673 472.458 183.331 471.025 183.331 469.258C183.331 467.491 184.673 466.059 186.328 466.059Z" fill="#3897F0"/>
<path fill-rule="evenodd" clip-rule="evenodd" d="M196.318 466.059C197.973 466.059 199.314 467.491 199.314 469.258C199.314 471.025 197.973 472.458 196.318 472.458C194.662 472.458 193.321 471.025 193.321 469.258C193.321 467.491 194.662 466.059 196.318 466.059Z" fill="black" fill-opacity="0.15"/>
<path fill-rule="evenodd" clip-rule="evenodd" d="M206.307 466.059C207.962 466.059 209.304 467.491 209.304 469.258C209.304 471.025 207.962 472.458 206.307 472.458C204.652 472.458 203.31 471.025 203.31 469.258C203.31 467.491 204.652 466.059 206.307 466.059Z" fill="black" fill-opacity="0.15"/>
</svg>
